<svg width="22" height="22" viewBox="0 0 22 22" fill="none" xmlns="http://www.w3.org/2000/svg">
<path fill-rule="evenodd" clip-rule="evenodd" d="M11.5238 17.3035C16.1522 17.3035 19.9047 14.1334 19.9047 10.2237C19.9047 6.31396 16.1522 3.14282 11.5238 3.14282C6.89539 3.14282 3.14282 6.31292 3.14282 10.2237C3.14282 11.7501 3.71482 13.1643 4.68806 14.3199L3.66663 19.119L7.76911 16.5555C8.95805 17.0534 10.2348 17.3077 11.5238 17.3035Z" stroke="#E9A524" stroke-linecap="round" stroke-linejoin="round"/>
<path fill-rule="evenodd" clip-rule="evenodd" d="M11.5227 11.5238C12.0465 11.5238 12.5703 11 12.5703 10.4762C12.5703 9.9524 12.0465 9.42859 11.5227 9.42859C10.9989 9.42859 10.4761 9.9524 10.4761 10.4762C10.4761 11 10.9989 11.5238 11.5227 11.5238ZM7.33222 11.5238C7.85603 11.5238 8.37984 11 8.37984 10.4762C8.37984 9.9524 7.85603 9.42859 7.33222 9.42859C6.80841 9.42859 6.28564 9.9524 6.28564 10.4762C6.28564 11 6.80841 11.5238 7.33222 11.5238ZM15.7132 11.5238C16.237 11.5238 16.7618 11 16.7618 10.4762C16.7618 9.9524 16.238 9.42859 15.7142 9.42859C15.1904 9.42859 14.6666 9.9524 14.6666 10.4762C14.6666 11 15.1904 11.5238 15.7142 11.5238" fill="#E9A524"/>
</svg>
