<svg width="29" height="28" viewBox="0 0 29 28" fill="none" xmlns="http://www.w3.org/2000/svg">
<path d="M1 12.5556C1 7.10856 1 4.38433 2.758 2.69289C4.516 1.00144 7.3435 1 13 1H16C21.6565 1 24.4855 1 26.242 2.69289C27.9985 4.38578 28 7.10856 28 12.5556V15.4444C28 20.8914 28 23.6157 26.242 25.3071C24.484 26.9986 21.6565 27 16 27H13C7.3435 27 4.5145 27 2.758 25.3071C1.0015 23.6142 1 20.8914 1 15.4444V12.5556Z" stroke="#FCFCDE" stroke-width="2"/>
<path d="M21.25 5.83398C22.2345 5.83398 23 6.59812 23 7.50098C22.9998 8.40369 22.2343 9.16699 21.25 9.16699C20.2657 9.16699 19.5002 8.40369 19.5 7.50098C19.5 6.59812 20.2655 5.83398 21.25 5.83398Z" fill="black" stroke="#FCFCDE"/>
<path d="M14.5 18.3327C16.9853 18.3327 19 16.3926 19 13.9993C19 11.6061 16.9853 9.66602 14.5 9.66602C12.0147 9.66602 10 11.6061 10 13.9993C10 16.3926 12.0147 18.3327 14.5 18.3327Z" stroke="#FCFCDE" stroke-width="2"/>
</svg>
