<svg width="27" height="27" viewBox="0 0 27 27" fill="none" xmlns="http://www.w3.org/2000/svg">
<path d="M13.5547 0.5H13.5557C15.2577 0.49439 16.9438 0.826356 18.5156 1.47559C19.9891 2.08419 21.3345 2.96034 22.4834 4.05859L22.7109 4.28125L22.7129 4.2832C25.1556 6.71377 26.4999 9.94747 26.5 13.3916C26.5 20.4839 20.6888 26.2703 13.5547 26.2705C11.3863 26.2705 9.25607 25.7244 7.36133 24.6973L7.1875 24.6035L6.99707 24.6533L0.709961 26.2969L2.38184 20.1934L2.43652 19.9922L2.33301 19.8115C1.20949 17.8617 0.608463 15.6527 0.608398 13.3789C0.608398 6.28643 6.42042 0.5 13.5547 0.5ZM13.541 1.75488C7.10744 1.75488 1.86035 6.97142 1.86035 13.3789C1.86168 15.5647 2.48153 17.7056 3.64746 19.5576L3.65039 19.5635L3.7998 19.7939L2.7334 23.6816L2.50391 24.5166L3.3418 24.2979L7.37109 23.2432L7.59961 23.3789L7.60254 23.3809C9.40194 24.4382 11.457 25.0029 13.5547 25.0029C19.8863 25.0027 25.0707 19.9614 25.2041 13.6895L25.207 13.3896C25.2124 11.8626 24.9134 10.3496 24.3271 8.93848C23.8137 7.70273 23.0888 6.56678 22.1865 5.58008L21.7891 5.16602C19.5921 2.96706 16.657 1.75496 13.541 1.75488ZM8.79199 7.69531H9.43652C9.46882 7.69674 9.49869 7.69802 9.5166 7.69824C9.54424 7.69858 9.55962 7.69829 9.57227 7.69922C9.59292 7.70075 9.5904 7.70319 9.58203 7.69922C9.55695 7.68723 9.62891 7.70119 9.73926 7.96191V7.96289C10.005 8.62379 10.6931 10.297 10.7871 10.4844C10.8136 10.5372 10.8198 10.5642 10.8213 10.5771C10.8218 10.5823 10.8221 10.587 10.8213 10.5918C10.8205 10.5966 10.8179 10.6069 10.8105 10.623C10.6993 10.8445 10.6573 10.9347 10.543 11.0674C10.3519 11.2892 10.1994 11.4888 10.0674 11.6201C9.99105 11.6961 9.82131 11.8584 9.73828 12.0879C9.63885 12.3632 9.68633 12.6441 9.83496 12.9082L9.83887 12.915L9.84277 12.9209C10.0369 13.2428 10.6617 14.2737 11.6162 15.1797L11.8115 15.3594C12.818 16.2541 13.7277 16.7021 14.248 16.9316L14.6279 17.0967C14.8279 17.1984 15.0661 17.2836 15.3232 17.2539C15.6096 17.2207 15.8151 17.0599 15.9609 16.8838L15.96 16.8828C16.159 16.6555 16.7911 15.9079 17.041 15.5449C17.0502 15.532 17.059 15.5224 17.0654 15.5146L17.0664 15.5156C17.1021 15.5236 17.1478 15.5375 17.2178 15.5615C17.5305 15.6924 19.1152 16.4674 19.4717 16.6377C19.5605 16.6801 19.642 16.7171 19.707 16.7471C19.7754 16.7786 19.8244 16.8017 19.8633 16.8223C19.8682 16.8249 19.8727 16.8277 19.877 16.8301C19.8812 16.8888 19.8831 16.9731 19.874 17.0811C19.8541 17.318 19.7926 17.6358 19.665 17.9863L19.6621 17.9941C19.5837 18.2199 19.3031 18.5172 18.875 18.791C18.461 19.0558 18.0318 19.2204 17.7998 19.2549C17.2509 19.3311 16.6036 19.3633 15.9053 19.1396L15.8975 19.1367C15.4197 18.9915 14.8158 18.7962 14.04 18.4561L14.0361 18.4541L13.7383 18.3193C10.6895 16.8736 8.67861 13.8159 8.50781 13.5752L8.50391 13.5693L8.49902 13.5635C8.42274 13.4623 8.10095 13.037 7.79883 12.4453C7.49297 11.8461 7.22949 11.1183 7.22949 10.4082C7.22958 9.32917 7.64491 8.67624 7.98047 8.27246L8.27148 7.94531C8.47146 7.73376 8.67837 7.69531 8.79199 7.69531Z" fill="#FCFCDE" stroke="#FAF5F2"/>
</svg>
