<svg width="40" height="40" viewBox="0 0 40 40" fill="none" xmlns="http://www.w3.org/2000/svg">
<path fill-rule="evenodd" clip-rule="evenodd" d="M18.4207 5.12286V0H21.5825V5.12286L25.2059 1.84571L27.4413 3.86857L21.5825 9.16286V17.5257L29.5977 13.3457L31.7414 6.11143L34.7957 6.84857L33.4677 11.3229L38.378 8.76286L39.9589 11.2371L35.0486 13.7971L40 14.9971L39.1843 17.7571L31.1786 15.82L23.1634 20L31.1786 24.18L39.1843 22.2429L40 25.0029L35.0486 26.2029L39.9589 28.7629L38.378 31.2371L33.4677 28.6771L34.7957 33.1514L31.7414 33.8886L29.5977 26.6543L21.5825 22.4743V30.8371L27.4413 36.1314L25.2059 38.1543L21.5825 34.8771V40H18.4207V34.8771L14.7941 38.1543L12.5587 36.1314L18.4207 30.8371V22.4743L10.4055 26.6543L8.2618 33.8886L5.20749 33.1514L6.53545 28.6771L1.62517 31.2371L0.0442651 28.7629L4.95139 26.2029L0 25.0029L0.822069 22.2429L8.8246 24.18L16.8398 20L8.8246 15.82L0.818907 17.7571L0 14.9971L4.95139 13.7971L0.0442651 11.2371L1.62517 8.76286L6.53229 11.3229L5.20433 6.84857L8.2618 6.11143L10.4055 13.3457L18.4207 17.5257V9.16286L12.5587 3.86857L14.7941 1.84571L18.4207 5.12286Z" fill="white"/>
</svg>
