<svg width="24" height="25" viewBox="0 0 24 25" fill="none" xmlns="http://www.w3.org/2000/svg">
<path fill-rule="evenodd" clip-rule="evenodd" d="M11.0524 3.1543V0H12.9495V3.1543L15.1235 1.13646L16.4648 2.382L12.9495 5.64186V10.7911L17.7586 8.21738L19.0448 3.763L20.8774 4.21688L20.0806 6.97184L23.0268 5.39557L23.9753 6.91906L21.0292 8.49534L24 9.23421L23.5106 10.9336L18.7071 9.74087L13.898 12.3146L18.7071 14.8884L23.5106 13.6956L24 15.395L21.0292 16.1339L23.9753 17.7102L23.0268 19.2337L20.0806 17.6574L20.8774 20.4124L19.0448 20.8663L17.7586 16.4119L12.9495 13.8381V18.9874L16.4648 22.2473L15.1235 23.4928L12.9495 21.475V24.6293H11.0524V21.475L8.87645 23.4928L7.53521 22.2473L11.0524 18.9874V13.8381L6.2433 16.4119L4.95708 20.8663L3.1245 20.4124L3.92127 17.6574L0.975101 19.2337L0.0265591 17.7102L2.97083 16.1339L0 15.395L0.493242 13.6956L5.29476 14.8884L10.1039 12.3146L5.29476 9.74087L0.491344 10.9336L0 9.23421L2.97083 8.49534L0.0265591 6.91906L0.975101 5.39557L3.91937 6.97184L3.1226 4.21688L4.95708 3.763L6.2433 8.21738L11.0524 10.7911V5.64186L7.53521 2.382L8.87645 1.13646L11.0524 3.1543Z" fill="#26BCEA"/>
</svg>
