<svg width="34" height="38" viewBox="0 0 34 38" fill="none" xmlns="http://www.w3.org/2000/svg">
<path d="M17.0458 0.000156164C12.983 0.000156164 9.64844 3.57047 9.64844 8.05922C9.64844 12.5479 12.983 16.1182 17.0459 16.1182C21.1089 16.1182 24.4459 12.5479 24.4459 8.05914C24.4459 3.57039 21.1089 0 17.0459 0L17.0458 0.000156164ZM12.4536 11.062C13.4908 11.3487 14.5156 11.5344 15.5298 11.6261V13.0909C14.3834 12.9964 13.2279 12.7902 12.063 12.4683L12.4536 11.062ZM21.6235 11.062L22.0068 12.4706C20.8777 12.7783 19.7349 12.9849 18.5791 13.0835V11.6212C19.6014 11.5256 20.6147 11.337 21.6237 11.0621L21.6235 11.062ZM9.11141 12.2877C3.22797 16.2562 0.470469 22.0696 0.026875 29.4752H0.0439061C0.0146688 29.6108 -4.93791e-05 29.7491 1.24459e-07 29.8877C1.24459e-07 30.9665 0.874219 31.8409 1.95313 31.8409C1.97031 31.8409 1.98719 31.8389 2.00438 31.8385V31.8557L16.023 31.8555V22.2145C14.0245 22.591 12.4902 24.4402 12.4902 27.1046V27.8346H4.64859V26.3746H5.64219C5.92844 23.6263 7.71422 20.281 9.18461 18.4571L10.3198 19.3727C9.09961 20.8863 7.46016 24.1902 7.12406 26.3746H11.067C11.3827 23.0871 13.8145 20.6813 16.7873 20.6813C19.5202 20.6813 22.1509 22.9436 22.5612 26.3747H26.9166C26.4938 24.1634 24.844 20.8809 23.628 19.3727L24.7659 18.4573C26.2412 20.2873 28.0192 23.6515 28.4035 26.3748H29.2287V27.8348H21.1718L21.1523 27.1243C21.0726 24.3387 19.3109 22.5748 17.4827 22.2122V31.8558H31.5966V31.8386C31.6138 31.8391 31.6306 31.8411 31.648 31.8411C32.7269 31.8411 33.6011 30.9666 33.6011 29.888C33.6011 29.7245 33.5803 29.5661 33.5425 29.4143C33.1077 22.1795 30.4939 16.472 24.8681 12.5223C23.3817 15.5187 20.4469 17.5785 17.0459 17.5785C13.5566 17.5785 10.5578 15.4113 9.11148 12.2879L9.11141 12.2877ZM7.56094 33.3155L8.27875 37.0265H25.5102L26.1719 33.3155H7.56094Z" fill="white"/>
</svg>
