<svg width="27" height="27" viewBox="0 0 27 27" fill="none" xmlns="http://www.w3.org/2000/svg">
<path d="M25.515 0H1.485C1.09115 0 0.713438 0.156455 0.434947 0.434947C0.156455 0.713438 0 1.09115 0 1.485V25.515C0 25.9088 0.156455 26.2866 0.434947 26.5651C0.713438 26.8435 1.09115 27 1.485 27H14.418V16.5375H10.908V12.4875H14.418V9.45C14.3453 8.73687 14.4295 8.01647 14.6647 7.33933C14.8999 6.66218 15.2803 6.04469 15.7794 5.53016C16.2785 5.01562 16.8841 4.61652 17.5538 4.36082C18.2235 4.10513 18.941 3.99904 19.656 4.05C20.7068 4.04275 21.757 4.09684 22.8015 4.212V7.857H20.655C18.954 7.857 18.63 8.667 18.63 9.8415V12.447H22.68L22.1535 16.497H18.63V27H25.515C25.71 27 25.9031 26.9616 26.0833 26.887C26.2635 26.8123 26.4272 26.703 26.5651 26.5651C26.703 26.4272 26.8123 26.2635 26.887 26.0833C26.9616 25.9031 27 25.71 27 25.515V1.485C27 1.28999 26.9616 1.09688 26.887 0.916715C26.8123 0.736547 26.703 0.572842 26.5651 0.434947C26.4272 0.297052 26.2635 0.187667 26.0833 0.113039C25.9031 0.0384108 25.71 0 25.515 0Z" fill="white"/>
</svg>
