<svg width="47" height="46" viewBox="0 0 47 46" fill="none" xmlns="http://www.w3.org/2000/svg">
<path d="M5.16634 45.8333C3.90592 45.8333 2.82731 45.3849 1.93051 44.4881C1.0337 43.5913 0.584536 42.5119 0.583008 41.25V4.58333C0.583008 3.32292 1.03217 2.24431 1.93051 1.3475C2.82884 0.450695 3.90745 0.00152778 5.16634 0H41.833C43.0934 0 44.1728 0.449167 45.0711 1.3475C45.9695 2.24583 46.4179 3.32444 46.4163 4.58333V41.25C46.4163 42.5104 45.9679 43.5898 45.0711 44.4881C44.1743 45.3865 43.095 45.8349 41.833 45.8333H5.16634ZM5.16634 32.0833V41.25H9.74968V36.6667H7.45801V32.0833H5.16634ZM5.16634 27.5H7.45801C7.45801 26.8507 7.67801 26.3068 8.11801 25.8683C8.55801 25.4299 9.1019 25.2099 9.74968 25.2083V19.4792C9.74968 18.5243 10.0843 17.7131 10.7534 17.0454C11.4226 16.3778 12.2338 16.0432 13.1872 16.0417H17.7705C18.7254 16.0417 19.5374 16.3763 20.2066 17.0454C20.8757 17.7146 21.2095 18.5258 21.208 19.4792V25.2083C21.8573 25.2083 22.402 25.4283 22.842 25.8683C23.282 26.3083 23.5012 26.8522 23.4997 27.5H41.833V4.58333H5.16634V27.5ZM10.8955 33.2292H20.0622V28.6458H10.8955V33.2292ZM15.4788 13.75C14.524 13.75 13.7127 13.4162 13.0451 12.7485C12.3775 12.0809 12.0429 11.2689 12.0413 10.3125C12.0398 9.35611 12.3744 8.54486 13.0451 7.87875C13.7158 7.21264 14.527 6.87806 15.4788 6.875C16.4306 6.87195 17.2427 7.20653 17.9149 7.87875C18.5871 8.55097 18.9209 9.36222 18.9163 10.3125C18.9118 11.2628 18.5779 12.0748 17.9149 12.7485C17.2518 13.4223 16.4398 13.7561 15.4788 13.75ZM14.333 41.25H16.6247V36.6667H14.333V41.25ZM21.208 41.25H41.833V32.0833H23.4997V36.6667H21.208V41.25ZM24.0726 18.3333C24.149 17.8368 24.1971 17.464 24.217 17.215C24.2368 16.966 24.246 16.7085 24.2445 16.4427C24.2445 16.0226 24.1589 15.6215 23.9878 15.2396C23.8167 14.8576 23.463 14.342 22.9268 13.6927C22.3538 12.967 21.9245 12.2413 21.6388 11.5156C21.3531 10.7899 21.2095 10.0451 21.208 9.28125C21.208 8.9757 21.2271 8.66097 21.2653 8.33708L21.4372 6.875H24.8747C24.7983 7.29514 24.741 7.68701 24.7028 8.05063C24.6646 8.41424 24.6455 8.82445 24.6455 9.28125C24.6455 9.70139 24.7318 10.1124 24.9045 10.5142C25.0771 10.916 25.3727 11.3453 25.7913 11.8021C26.4788 12.6424 26.9754 13.4353 27.2809 14.1808C27.5865 14.9264 27.7393 15.6803 27.7393 16.4427C27.7393 16.8628 27.7202 17.2066 27.682 17.474C27.6438 17.7413 27.5865 18.0278 27.5101 18.3333H24.0726ZM29.8018 18.3333C29.8781 17.8368 29.9263 17.464 29.9461 17.215C29.966 16.966 29.9752 16.7085 29.9736 16.4427C29.9736 16.0226 29.8881 15.6215 29.717 15.2396C29.5459 14.8576 29.1922 14.342 28.6559 13.6927C28.083 12.967 27.6537 12.2413 27.368 11.5156C27.0823 10.7899 26.9387 10.0451 26.9372 9.28125C26.9372 8.9757 26.9563 8.66097 26.9945 8.33708L27.1663 6.875H30.6038C30.5275 7.29514 30.4702 7.68701 30.432 8.05063C30.3938 8.41424 30.3747 8.82445 30.3747 9.28125C30.3747 9.70139 30.461 10.1124 30.6336 10.5142C30.8063 10.916 31.1019 11.3453 31.5205 11.8021C32.208 12.6424 32.7045 13.4353 33.0101 14.1808C33.3156 14.9264 33.4684 15.6803 33.4684 16.4427C33.4684 16.8628 33.4493 17.2066 33.4111 17.474C33.3729 17.7413 33.3156 18.0278 33.2393 18.3333H29.8018ZM35.6455 18.3333C35.7219 17.8368 35.77 17.464 35.7899 17.215C35.8098 16.966 35.8189 16.7085 35.8174 16.4427C35.8174 16.0226 35.7318 15.6215 35.5607 15.2396C35.3896 14.8576 35.0359 14.342 34.4997 13.6927C33.9268 12.967 33.4975 12.2413 33.2118 11.5156C32.9261 10.7899 32.7825 10.0451 32.7809 9.28125C32.7809 8.9757 32.8 8.66097 32.8382 8.33708L33.0101 6.875H36.4476C36.3712 7.29514 36.3139 7.68701 36.2757 8.05063C36.2375 8.41424 36.2184 8.82445 36.2184 9.28125C36.2184 9.70139 36.3047 10.1124 36.4774 10.5142C36.65 10.916 36.9456 11.3453 37.3643 11.8021C38.0518 12.6424 38.5483 13.4353 38.8538 14.1808C39.1594 14.9264 39.3122 15.6803 39.3122 16.4427C39.3122 16.8628 39.2931 17.2066 39.2549 17.474C39.2167 17.7413 39.1594 18.0278 39.083 18.3333H35.6455Z" fill="white"/>
</svg>
