<svg width="50" height="50" viewBox="0 0 50 50" fill="none" xmlns="http://www.w3.org/2000/svg">
<path d="M47.5 22.9975H45.05C43.6675 22.9975 42.55 23.895 42.55 25C42.55 26.1025 43.6675 26.9975 45.05 26.9975H47.5C48.88 26.9975 50 26.105 50 25C50 23.8975 48.8775 22.9975 47.5 22.9975ZM25 11.25C23.1928 11.2444 21.4022 11.5962 19.7315 12.2852C18.0607 12.9742 16.5427 13.9868 15.2648 15.2648C13.9868 16.5427 12.9742 18.0607 12.2852 19.7315C11.5962 21.4022 11.2444 23.1928 11.25 25C11.25 32.6275 17.3725 38.75 25 38.75C32.625 38.75 38.75 32.6275 38.75 25C38.75 17.3725 32.6225 11.25 25 11.25ZM25 35C19.4725 35 15 30.5225 15 25C15 19.4725 19.4725 15 25 15C27.6522 15 30.1957 16.0536 32.0711 17.9289C33.9464 19.8043 35 22.3478 35 25C35 27.6522 33.9464 30.1957 32.0711 32.0711C30.1957 33.9464 27.6522 35 25 35ZM7.5 25C7.5 23.8975 6.3775 22.9975 5 22.9975H2.5C1.1175 22.9975 0 23.895 0 25C0 26.1025 1.1175 26.9975 2.5 26.9975H5C6.3775 26.9975 7.5 26.1025 7.5 25ZM25 7.5C26.1025 7.5 26.9975 6.3825 26.9975 5V2.5C26.9975 1.1175 26.1025 0 25 0C23.8975 0 22.9975 1.1175 22.9975 2.5V5C22.9975 6.3825 23.895 7.5 25 7.5ZM25 42.5C23.895 42.5 22.9975 43.6175 22.9975 45V47.5C22.9975 48.8825 23.895 50 25 50C26.1025 50 26.9975 48.8825 26.9975 47.5V45C26.9975 43.6175 26.1025 42.5 25 42.5ZM43.4125 9.415C44.39 8.4375 44.5475 7.0125 43.7675 6.2325C42.9875 5.4525 41.56 5.6125 40.5875 6.59L38.8375 8.3375C37.86 9.315 37.7025 10.74 38.4825 11.52C39.2625 12.3 40.69 12.14 41.665 11.1625L43.4125 9.415ZM8.335 38.8325L6.585 40.585C5.6075 41.5625 5.45 42.9825 6.23 43.7625C7.01 44.5425 8.4375 44.3875 9.41 43.41L11.16 41.6625C12.1375 40.685 12.295 39.26 11.515 38.4775C10.735 37.695 9.3075 37.86 8.335 38.8325ZM9.4125 6.5875C8.4375 5.61 7.01 5.45 6.23 6.23C5.45 7.01 5.61 8.4375 6.5825 9.415L8.3325 11.1625C9.31 12.14 10.7325 12.3 11.5125 11.52C12.2925 10.74 12.135 9.3125 11.16 8.3375L9.4125 6.5875ZM38.835 41.665L40.585 43.4125C41.5625 44.39 42.985 44.545 43.765 43.77C44.545 42.99 44.3875 41.5625 43.41 40.5875L41.6625 38.84C40.685 37.8625 39.26 37.7025 38.4775 38.4825C37.695 39.2625 37.8575 40.6875 38.835 41.665Z" fill="white"/>
</svg>
