<svg width="40" height="40" viewBox="0 0 40 40" fill="none" xmlns="http://www.w3.org/2000/svg">
<path d="M20 5C19.5075 5 19.0199 5.097 18.5649 5.28545C18.11 5.47391 17.6966 5.75013 17.3483 6.09835C17.0001 6.44657 16.7239 6.85997 16.5355 7.31494C16.347 7.76991 16.25 8.25754 16.25 8.75C16.25 9.24246 16.347 9.73009 16.5355 10.1851C16.7239 10.64 17.0001 11.0534 17.3483 11.4017C17.6966 11.7499 18.11 12.0261 18.5649 12.2145C19.0199 12.403 19.5075 12.5 20 12.5C20.9946 12.5 21.9484 12.1049 22.6517 11.4017C23.3549 10.6984 23.75 9.74456 23.75 8.75C23.75 7.75544 23.3549 6.80161 22.6517 6.09835C21.9484 5.39509 20.9946 5 20 5ZM13.75 8.75C13.75 7.0924 14.4085 5.50269 15.5806 4.33058C16.7527 3.15848 18.3424 2.5 20 2.5C21.6576 2.5 23.2473 3.15848 24.4194 4.33058C25.5915 5.50269 26.25 7.0924 26.25 8.75C26.25 10.4076 25.5915 11.9973 24.4194 13.1694C23.2473 14.3415 21.6576 15 20 15C18.3424 15 16.7527 14.3415 15.5806 13.1694C14.4085 11.9973 13.75 10.4076 13.75 8.75ZM10 21.25C10.0017 20.7933 10.0483 20.3517 10.14 19.925L5.28 21.225C4.80423 21.3526 4.35827 21.5727 3.96759 21.8727C3.57691 22.1728 3.24916 22.5468 3.00307 22.9735C2.75698 23.4002 2.59737 23.8712 2.53336 24.3596C2.46934 24.8481 2.50218 25.3443 2.63 25.82L3.6 29.4425C3.86079 30.4145 4.31454 31.3241 4.93421 32.117C5.55388 32.91 6.3268 33.5702 7.20694 34.0582C8.08708 34.5462 9.05644 34.8521 10.0573 34.9576C11.0581 35.0631 12.0699 34.9662 13.0325 34.6725C12.3639 34.0239 11.7892 33.2851 11.325 32.4775C10.1473 32.5912 8.96744 32.2836 7.99519 31.6093C7.02294 30.935 6.32129 29.9378 6.015 28.795L5.0425 25.17C4.95702 24.8498 5.00223 24.5087 5.16819 24.2217C5.33415 23.9348 5.60728 23.7256 5.9275 23.64L10 22.55V21.25ZM27.215 34.745L26.965 34.675C27.6325 34.025 28.21 33.2875 28.675 32.4775C29.8527 32.5912 31.0326 32.2836 32.0048 31.6093C32.9771 30.935 33.6787 29.9378 33.985 28.795L34.955 25.17C35.0406 24.8501 34.9957 24.5093 34.8302 24.2224C34.6648 23.9356 34.3923 23.7261 34.0725 23.64L30 22.55V21.25C29.9983 20.7933 29.9517 20.3517 29.86 19.925L34.7175 21.225C35.1935 21.3524 35.6397 21.5723 36.0307 21.8722C36.4216 22.1721 36.7497 22.5461 36.996 22.9728C37.2423 23.3995 37.4022 23.8706 37.4663 24.3592C37.5305 24.8477 37.4978 25.3441 37.37 25.82L36.4 29.4425C35.8845 31.3631 34.6273 33.0003 32.9048 33.9942C31.1824 34.9881 29.1358 35.2598 27.215 34.745ZM5 12.5C5 11.837 5.26339 11.2011 5.73223 10.7322C6.20107 10.2634 6.83696 10 7.5 10C8.16304 10 8.79893 10.2634 9.26777 10.7322C9.73661 11.2011 10 11.837 10 12.5C10 13.163 9.73661 13.7989 9.26777 14.2678C8.79893 14.7366 8.16304 15 7.5 15C6.83696 15 6.20107 14.7366 5.73223 14.2678C5.26339 13.7989 5 13.163 5 12.5ZM7.5 7.5C6.17392 7.5 4.90215 8.02678 3.96447 8.96447C3.02678 9.90215 2.5 11.1739 2.5 12.5C2.5 13.8261 3.02678 15.0979 3.96447 16.0355C4.90215 16.9732 6.17392 17.5 7.5 17.5C8.82608 17.5 10.0979 16.9732 11.0355 16.0355C11.9732 15.0979 12.5 13.8261 12.5 12.5C12.5 11.1739 11.9732 9.90215 11.0355 8.96447C10.0979 8.02678 8.82608 7.5 7.5 7.5ZM32.5 10C31.837 10 31.2011 10.2634 30.7322 10.7322C30.2634 11.2011 30 11.837 30 12.5C30 13.163 30.2634 13.7989 30.7322 14.2678C31.2011 14.7366 31.837 15 32.5 15C33.163 15 33.7989 14.7366 34.2678 14.2678C34.7366 13.7989 35 13.163 35 12.5C35 11.837 34.7366 11.2011 34.2678 10.7322C33.7989 10.2634 33.163 10 32.5 10ZM27.5 12.5C27.5 11.1739 28.0268 9.90215 28.9645 8.96447C29.9021 8.02678 31.1739 7.5 32.5 7.5C33.8261 7.5 35.0979 8.02678 36.0355 8.96447C36.9732 9.90215 37.5 11.1739 37.5 12.5C37.5 13.8261 36.9732 15.0979 36.0355 16.0355C35.0979 16.9732 33.8261 17.5 32.5 17.5C31.1739 17.5 29.9021 16.9732 28.9645 16.0355C28.0268 15.0979 27.5 13.8261 27.5 12.5ZM16.25 17.5C15.2554 17.5 14.3016 17.8951 13.5983 18.5983C12.8951 19.3016 12.5 20.2554 12.5 21.25V27.5C12.5 29.4891 13.2902 31.3968 14.6967 32.8033C16.1032 34.2098 18.0109 35 20 35C21.9891 35 23.8968 34.2098 25.3033 32.8033C26.7098 31.3968 27.5 29.4891 27.5 27.5V21.25C27.5 20.2554 27.1049 19.3016 26.4017 18.5983C25.6984 17.8951 24.7446 17.5 23.75 17.5H16.25ZM15 21.25C15 20.9185 15.1317 20.6005 15.3661 20.3661C15.6005 20.1317 15.9185 20 16.25 20H23.75C24.0815 20 24.3995 20.1317 24.6339 20.3661C24.8683 20.6005 25 20.9185 25 21.25V27.5C25 28.8261 24.4732 30.0979 23.5355 31.0355C22.5979 31.9732 21.3261 32.5 20 32.5C18.6739 32.5 17.4021 31.9732 16.4645 31.0355C15.5268 30.0979 15 28.8261 15 27.5V21.25Z" fill="white"/>
</svg>
