<svg width="18" height="20" viewBox="0 0 18 20" fill="none" xmlns="http://www.w3.org/2000/svg">
<path fill-rule="evenodd" clip-rule="evenodd" d="M9.54417 19.3197L9.53317 19.3216L9.46809 19.3537L9.44975 19.3573L9.43692 19.3537L9.37184 19.3207C9.36206 19.3182 9.35472 19.32 9.34984 19.3262L9.34617 19.3353L9.33059 19.7277L9.33517 19.746L9.34434 19.7579L9.43967 19.8257L9.45342 19.8294L9.46442 19.8257L9.55975 19.7579L9.57075 19.7432L9.57442 19.7277L9.55884 19.3362C9.55639 19.3265 9.5515 19.321 9.54417 19.3197ZM9.78617 19.2162L9.77334 19.218L9.60467 19.3032L9.5955 19.3124L9.59275 19.3225L9.60925 19.7167L9.61384 19.7277L9.62117 19.735L9.80542 19.8193C9.81703 19.8224 9.82589 19.8199 9.832 19.812L9.83567 19.7992L9.8045 19.2363C9.80145 19.2247 9.79534 19.218 9.78617 19.2162ZM9.13075 19.218C9.12671 19.2155 9.12188 19.2147 9.11727 19.2158C9.11266 19.2168 9.10863 19.2196 9.106 19.2235L9.1005 19.2363L9.06934 19.7992C9.06995 19.8102 9.07514 19.8175 9.08492 19.8212L9.09867 19.8193L9.28292 19.7341L9.29209 19.7267L9.29484 19.7167L9.31134 19.3225L9.30859 19.3115L9.29942 19.3023L9.13075 19.218Z" fill="white"/>
<path fill-rule="evenodd" clip-rule="evenodd" d="M6.25 2.58333C6.25 2.0971 6.44315 1.63079 6.78697 1.28697C7.13079 0.943154 7.5971 0.75 8.08333 0.75H9.91667C10.4029 0.75 10.8692 0.943154 11.213 1.28697C11.5568 1.63079 11.75 2.0971 11.75 2.58333V6.25H15.4167C15.9029 6.25 16.3692 6.44315 16.713 6.78697C17.0568 7.13079 17.25 7.5971 17.25 8.08333V9.91667C17.25 10.4029 17.0568 10.8692 16.713 11.213C16.3692 11.5568 15.9029 11.75 15.4167 11.75H11.75V15.4167C11.75 15.9029 11.5568 16.3692 11.213 16.713C10.8692 17.0568 10.4029 17.25 9.91667 17.25H8.08333C7.5971 17.25 7.13079 17.0568 6.78697 16.713C6.44315 16.3692 6.25 15.9029 6.25 15.4167V11.75H2.58333C2.0971 11.75 1.63079 11.5568 1.28697 11.213C0.943154 10.8692 0.75 10.4029 0.75 9.91667V8.08333C0.75 7.5971 0.943154 7.13079 1.28697 6.78697C1.63079 6.44315 2.0971 6.25 2.58333 6.25H6.25V2.58333Z" fill="white"/>
</svg>
