<svg width="45" height="45" viewBox="0 0 45 45" fill="none" xmlns="http://www.w3.org/2000/svg">
<g clip-path="url(#clip0_114_920)">
<path d="M29.0625 2.93464C29.0625 2.93464 24.8438 7.75527 29.0625 14.1846C33.2812 20.614 29.0625 25.4346 29.0625 25.4346M34.6875 2.93464C34.6875 2.93464 30.4688 7.75527 34.6875 14.1846C38.9062 20.614 34.6875 25.4346 34.6875 25.4346M40.3125 2.93464C40.3125 2.93464 36.0938 7.75527 40.3125 14.1846C44.5312 20.614 40.3125 25.4346 40.3125 25.4346M0 37.6221H18.75M19.6875 28.2471L15.9375 13.2471H13.2506C12.1107 13.2473 10.9978 13.5938 10.0592 14.2407C9.12067 14.8876 8.4008 15.8044 7.995 16.8696L1.875 32.9346M28.125 45.1221C26.25 45.1221 24.8438 42.3096 24.8438 42.3096C23.4375 39.4971 23.4375 37.6221 23.4375 34.8096V31.9971H10.3125V20.7471M13.4906 9.49714C13.4906 9.49714 10.0969 8.45276 9.4875 6.16714C9.26177 5.32063 9.37991 4.41921 9.81616 3.65946C10.2524 2.89971 10.9714 2.34328 11.8163 2.11152C12.2344 1.99963 12.6705 1.97158 13.0995 2.02897C13.5285 2.08637 13.9419 2.22807 14.3159 2.44592C14.6899 2.66377 15.0172 2.95347 15.2787 3.29832C15.5403 3.64318 15.731 4.03637 15.84 4.45527C16.4475 6.74089 14.0363 9.34901 14.0363 9.34901L13.4906 9.49714Z" stroke="white" stroke-width="3"/>
</g>
<defs>
<clipPath id="clip0_114_920">
<rect width="45" height="45" fill="white"/>
</clipPath>
</defs>
</svg>
