<svg width="27" height="27" viewBox="0 0 27 27" fill="none" xmlns="http://www.w3.org/2000/svg">
<path d="M23.0653 3.92856C21.8212 2.67861 20.3396 1.68752 18.7067 1.01306C17.0738 0.338596 15.3223 -0.00575526 13.5543 7.27582e-05C6.14623 7.27582e-05 0.108543 6.00756 0.108543 13.3785C0.108543 15.741 0.732663 18.036 1.8995 20.061L0 27L7.12312 25.137C9.09045 26.2035 11.302 26.7705 13.5543 26.7705C20.9623 26.7705 27 20.763 27 13.392C27 9.81455 25.6025 6.45306 23.0653 3.92856ZM13.5543 24.5025C11.5462 24.5025 9.57889 23.9625 7.85578 22.95L7.44874 22.707L3.21558 23.814L4.34171 19.71L4.07035 19.2915C2.95446 17.5191 2.36206 15.4701 2.3608 13.3785C2.3608 7.24955 7.3809 2.25457 13.5407 2.25457C16.5256 2.25457 19.3342 3.41556 21.4372 5.52156C22.4787 6.55277 23.304 7.77949 23.8653 9.13054C24.4266 10.4816 24.7127 11.9301 24.707 13.392C24.7342 19.521 19.7141 24.5025 13.5543 24.5025ZM19.6869 16.1865C19.3477 16.0245 17.6925 15.2145 17.394 15.093C17.0819 14.985 16.8648 14.931 16.6342 15.255C16.4035 15.5925 15.7658 16.3485 15.5759 16.5645C15.3859 16.794 15.1824 16.821 14.8432 16.6455C14.504 16.4835 13.4186 16.119 12.1432 14.985C11.1392 14.094 10.4744 13.0005 10.2709 12.663C10.0809 12.3255 10.2437 12.15 10.4201 11.9745C10.5693 11.826 10.7593 11.583 10.9221 11.394C11.0849 11.205 11.1528 11.0565 11.2613 10.8405C11.3698 10.611 11.3156 10.422 11.2342 10.26C11.1528 10.098 10.4744 8.45105 10.203 7.77605C9.93166 7.12805 9.64673 7.20905 9.44322 7.19555H8.79196C8.56131 7.19555 8.20854 7.27655 7.89648 7.61405C7.59799 7.95155 6.72965 8.76155 6.72965 10.4085C6.72965 12.0555 7.93719 13.6485 8.1 13.8645C8.26281 14.094 10.4744 17.469 13.8392 18.9135C14.6397 19.2645 15.2638 19.467 15.7523 19.6155C16.5528 19.872 17.2854 19.8315 17.8688 19.7505C18.5201 19.656 19.8633 18.9405 20.1347 18.1575C20.4196 17.3745 20.4196 16.713 20.3246 16.5645C20.2296 16.416 20.0261 16.3485 19.6869 16.1865Z" fill="white"/>
</svg>
