<svg width="44" height="44" viewBox="0 0 44 44" fill="none" xmlns="http://www.w3.org/2000/svg">
<path fill-rule="evenodd" clip-rule="evenodd" d="M28.8291 40.3334V26.1342H33.5958L34.309 20.6012H28.8273V17.0684C28.8273 15.4661 29.2728 14.3734 31.5718 14.3734H34.5015V9.42341C33.0827 9.27098 31.6567 9.19753 30.2298 9.20341C26.0058 9.20341 23.1146 11.7829 23.1146 16.5184V20.6012H18.3333V26.1342H23.1128V40.3334H5.69063C4.57229 40.3334 3.66663 39.4277 3.66663 38.3094V5.69075C3.66663 4.57241 4.57229 3.66675 5.69063 3.66675H38.3093C39.4276 3.66675 40.3333 4.57241 40.3333 5.69075V38.3094C40.3333 39.4277 39.4276 40.3334 38.3093 40.3334H28.8291Z" fill="#E9A524"/>
</svg>
